<?xml version="1.0" encoding="utf-8"?>
<!-- Generator: Adobe Illustrator 24.0.1, SVG Export Plug-In . SVG Version: 6.00 Build 0)  -->
<svg version="1.1" id="Layer_1" xmlns="http://www.w3.org/2000/svg" xmlns:xlink="http://www.w3.org/1999/xlink" x="0px" y="0px"
	 viewBox="0 0 403.3 403.3" style="enable-background:new 0 0 403.3 403.3;" xml:space="preserve">
<style type="text/css">
	.st0{fill:#CF4691;}
</style>
<g>
	<path class="st0" d="M275.1,180.9c0.6,0.9,1.2,1.8,1.8,2.7c0.9,1.4,1.7,2.9,2.5,4.3c6.4,11.5,10.8,24.1,13,37.5
		c2.5,15.2,2.1,30.1-1.2,44.5c-3.3,14.3-9,27.4-16.9,38.9c-3.6,5.2-7.6,10-12,14.5v-26.7l0.1-115.8h0.3l6.7-7.9
		C271.4,175.5,273.3,178.1,275.1,180.9 M231.8,154.2l-15,24.5l-30.5,49.6l-30.5-49.6l-15-24.5h-22.1c2.9-2.4,6-4.8,9.2-6.9
		c11.9-8,25.2-13.2,39.7-15.6c14.5-2.4,28.9-1.8,42.8,1.9c13.9,3.7,26.6,9.8,37.9,18.3c1,0.8,2,1.6,3,2.4H231.8z M80.2,260.8
		c-2.5-15.2-2.1-30.2,1.1-44.6c2.4-10.5,6-20.3,10.9-29.4c1.1-2,2.2-4,3.4-5.9c0.8-1.4,1.7-2.7,2.6-4.1c1.2-1.8,2.5-3.5,3.8-5.2
		l7.8,9.3h0.3l0.1,113.7v26.7c-5.4-5.6-10.2-11.9-14.5-18.7C87.9,290,82.7,276,80.2,260.8 M351.9,53.2c2.2-2.5,4.2-5.7,5.6-9.9
		c1.4-5.1,2.1-18-10.9-21.7c1.6,2.8,5,9.9,0.9,19.2c-0.5-1.8-1.4-3.4-2.6-4.9c1.9,6.8-0.2,13.8-4.7,19.3c3.4-5.7,4.8-14.2-2.1-24.7
		c-3.3-5.4-16.3-15.4-32-8.4c4.4,0.9,18,3.5,20.2,14.1c-2.3-1-4.7-1.6-7.3-1.8c8.7,3.8,13.8,10.9,15.2,18.7
		c-2.8-6.9-8.6-13.7-20-13.8c-7.1,0.6-19.4,5.7-21.3,25.3c2.7-3.6,7.1-13.9,19.9-11.4c-2.9,1-4.7,3.3-4.4,6.9
		c8.7-7.4,19.4-5.9,25.1-0.5c-39.2,5-65.8,36.7-70.1,42.1l-24.9-16.3c-0.5-0.3-1.2-0.2-1.5,0.3l-10.9,16.6c-2.2-0.6-4.3-1.2-6.5-1.8
		c-18.6-4.6-38-5.3-57.7-2c-19.7,3.3-37.8,10.2-53.7,20.6c-16,10.4-29.5,23.3-40.2,38.4c-10.7,15.1-18.3,32.3-22.8,51
		c-4.5,18.7-5,38.3-1.7,58.3c3.3,19.7,10.2,37.9,20.4,54c10.3,16.1,23.1,29.8,38.1,40.6c2.6,1.9,5.4,3.7,8.1,5.4
		c1.1,0.7,2.2,1.3,3.3,1.9l4.4,0.1l0.7-0.3l29.8-15.1l0-120.3l37.9,62.8l37.9-62.8l0,120.3l29.8,15.1l0.7,0.3l5-0.1
		c0.9-0.5,1.8-1.1,2.7-1.6c0.6-0.3,1.1-0.7,1.7-1c16.1-10.4,29.7-23.3,40.4-38.4c10.7-15.1,18.4-32.2,22.8-50.8
		c4.5-18.6,5.1-38,1.8-57.7c-3.3-20-10.2-38.3-20.5-54.6c-5.5-8.8-11.8-16.8-18.8-24l9.4-14.4c0.3-0.5,0.2-1.2-0.3-1.5l-24.6-16.1
		c26.8-34.3,61.3-42.1,61.3-42.1c-1.8,9.3-5.7,16.1-16.9,17.3c1.1,1.4,4.2,2,7.5,0.7c-2.2,10.1-21.2,9.5-26.4,8.9
		c18,14.1,35.5,4.9,38.4,2.4c9.4-10.1,7.8-21,3.8-29.1c5.1,7.7,6.4,17.8,2,27.9c2-2.2,3.7-4.6,4.8-7.3c4,3.9-3,23.5-6,27.7
		c18.8-6.4,20.7-24.9,20.4-32.2c-2.4-14.3-10.2-20.3-17.6-22.5c8.1,1.2,15.8,5.7,19.5,12.9c0.6-2.6-0.9-5.5-2-6.4
		c9.1,0.8,11.8,13.5,12.6,17.2C384.9,57.9,356.9,52.8,351.9,53.2"/>
</g>
</svg>
