<?xml version="1.0" encoding="utf-8"?>
<!-- Generator: Adobe Illustrator 24.0.1, SVG Export Plug-In . SVG Version: 6.00 Build 0)  -->
<svg version="1.1" id="Layer_1" xmlns="http://www.w3.org/2000/svg" xmlns:xlink="http://www.w3.org/1999/xlink" x="0px" y="0px"
	 viewBox="0 0 500 500" style="enable-background:new 0 0 500 500;" xml:space="preserve">
<style type="text/css">
	.st0{fill:#A5ACAF;}
</style>
<g>
	<path class="st0" d="M445.2,48.5H53.8c-14.2,0-25.4,10.2-25.4,23.7V261c53.1,0,153.9,0,153.9,0c0.9,0,1.7-0.3,2.4-0.8
		c1.9-1.1,3.3-3.4,3.3-6.1c0-2.5-1.2-4.7-3-5.9c0,0,0,0,0,0l-90.4-25.4c-20.2-5-31.6-17.2-36.1-36c-3.8-15.9-3.5-32.3,0.9-48
		c5.5-19.4,21-31.5,41-32.1l370.6,0.1V72.2C471,58.7,459.4,48.5,445.2,48.5z"/>
	<path class="st0" d="M334.2,188c24.1,0,74,0,98.2,0v50.6c-24.1,0-75.6,0-98.2,0v73.6l-69.2,0v-155c-12.9,0-134.6,0-134.5,0
		c-3.3,0-6,3.1-6,6.9c0,2.6,1.3,4.9,3.1,6c2.5,2,6.1,3,9.3,3.8c25.6,6.7,51.3,13.2,77,19.9c30.5,8,44.2,18.9,44.9,50.6
		c0.3,12.2-0.3,24.9-2.8,37c-4,18.5-19.2,30.8-41.9,30.8c0,0-121.4,0-185.8-0.1l0,82.2c0,0,0,15.1,11.3,18.5v-20.6l3.2-13.6
		l3.2,13.6v23.3c1.5,0.7,4.4,1,6.5,1.1h4.7v-22.8l4-23.8l4,23.8v22.8h12.9v-27.8l3.2-21.3l3.2,21.3v27.8H96v-33.8l4-20.1l4,20.1
		v33.8h11.3V377l4-19.7l4,19.7v39.5h11.3v-62.5l3.2-23.8l3.2,23.8v62.5h12.9v-62.5l4-23.8l4,23.8v62.5h11.3V377l3.2-19.7l3.2,19.7
		v39.5H191v-33.8l4-20.1l4,20.1v33.8h11.3v-27.8l4-21.3l4,21.3v27.8h11.3v-22.8l4-23.8l4,23.8v16.7v6.2h9.1h0.5h1.6v-24.3l4-13.6
		l4,13.6v24.3h1.1h8.6v-20.9l4-11l4,11v20.9h9.7V398l4-9.2l4,9.2v18.5h11.3V399l3.2-16.1l3.2,16.1v17.5h12.9v-20.8l4-14.4l4,14.4
		v20.8h11.3v-24.9l3.2-13.6l3.2,13.6v24.9H360v-28.8l4-13.3l4,13.3v28.8h11.3v-44.3l4-16.1l4,16.1v44.3h11.3v-44.3l4-16.1l4,16.1
		v44.3h11.3v-28.8l4-13.3l4,13.3v28.8h11.3v-24.9l3.2-13.6l3.2,13.6v24.9h1.5h0.4c3.5,0,6.1-0.6,9.4-1.8v-4.4v-14.7l4-14.4l4,14.4
		v14.6c4.8-4.3,8-10.4,8-17.5v-68.3v-4.6V157.3c-41.8,0-93.3,0-136.8,0C334.2,167.5,334.2,179.1,334.2,188z"/>
</g>
</svg>
